<?xml version="1.0" standalone="no"?>
<!DOCTYPE svg PUBLIC "-//W3C//DTD SVG 20010904//EN"
 "http://www.w3.org/TR/2001/REC-SVG-20010904/DTD/svg10.dtd">
<svg version="1.0" xmlns="http://www.w3.org/2000/svg"
 width="304.000000pt" height="304.000000pt" viewBox="0 0 304.000000 304.000000"
 preserveAspectRatio="xMidYMid meet">
<metadata>
Created by potrace 1.14, written by Peter Selinger 2001-2017
</metadata>
<g transform="translate(0.000000,304.000000) scale(0.100000,-0.100000)"
fill="#000000" stroke="none">
<path d="M1379 3036 c-2 -2 -26 -6 -54 -10 -95 -11 -130 -18 -215 -43 -484
-140 -861 -495 -1024 -962 -59 -170 -79 -291 -80 -481 -1 -185 6 -259 40 -395
73 -292 243 -566 484 -778 132 -116 340 -234 515 -290 124 -40 142 -44 305
-67 77 -10 284 -10 350 1 30 5 73 11 95 14 220 32 512 170 705 332 234 198
418 490 491 783 37 149 46 232 44 400 -2 182 -18 284 -67 440 -84 266 -239
500 -458 693 -176 155 -466 297 -685 336 -33 6 -73 13 -90 16 -34 7 -350 17
-356 11z m396 -180 c191 -38 398 -128 550 -240 262 -192 459 -498 526 -817 35
-166 33 -419 -6 -584 -36 -158 -122 -354 -204 -465 -23 -30 -51 -68 -63 -85
-50 -68 -205 -209 -296 -269 -170 -113 -339 -182 -532 -218 -70 -13 -344 -18
-401 -8 -24 5 -62 11 -84 14 -104 16 -254 69 -375 132 -293 153 -528 419 -645
730 -25 67 -58 191 -71 274 -10 60 -11 321 -1 388 34 237 134 469 285 662 107
137 299 290 462 370 86 41 233 95 293 106 18 3 64 11 102 18 95 18 357 13 460
-8z"/>
<path d="M890 2221 c-215 -55 -323 -186 -329 -396 -4 -138 33 -296 107 -458
35 -77 57 -103 27 -32 -33 81 -57 196 -60 290 -3 137 33 240 113 321 48 47
141 98 208 112 100 22 237 -4 359 -67 l56 -29 57 54 57 55 -35 29 c-47 40
-131 84 -210 110 -88 30 -258 35 -350 11z"/>
<path d="M1935 2228 c-193 -28 -387 -155 -547 -358 -101 -128 -156 -283 -162
-463 -3 -78 28 -237 46 -237 4 0 7 3 6 8 -10 37 54 242 121 386 112 242 305
434 483 480 125 32 279 -14 361 -108 29 -34 66 -111 78 -163 11 -47 14 -198 5
-238 -35 -161 -69 -250 -134 -362 -130 -220 -356 -397 -547 -429 -110 -17
-137 -20 -200 -18 l-70 2 35 -16 c59 -27 227 -25 329 4 308 90 551 327 677
662 79 210 83 457 10 618 -28 62 -105 143 -166 177 -91 50 -216 71 -325 55z"/>
</g>
</svg>
