<svg viewBox="0 0 24 25" fill="none" xmlns="http://www.w3.org/2000/svg"><path d="M19.9918 19.6408L18.8976 13.3316H19.2671C19.5644 13.3316 19.8039 13.0921 19.8039 12.7948V8.83097C19.8039 8.53368 19.5644 8.2942 19.2671 8.2942H14.1884V4.53677C14.1884 4.23948 13.9489 4 13.6516 4H10.3484C10.0511 4 9.81162 4.23948 9.81162 4.53677V8.2942H4.7329C4.43561 8.2942 4.19613 8.53368 4.19613 8.83097V12.7948C4.19613 13.0921 4.43561 13.3316 4.7329 13.3316H5.10245L4.00826 19.6408C4.00206 19.6718 4 19.7027 4 19.7316C4 20.0289 4.23948 20.2684 4.53677 20.2684H19.4632C19.4942 20.2684 19.5252 20.2663 19.5541 20.2601C19.8472 20.2106 20.0434 19.9319 19.9918 19.6408ZM5.64129 9.73936H11.2568V5.44516H12.7432V9.73936H18.3587V11.8865H5.64129V9.73936ZM15.3032 18.8232V15.6026C15.3032 15.5118 15.2289 15.4374 15.1381 15.4374H14.1471C14.0563 15.4374 13.9819 15.5118 13.9819 15.6026V18.8232H10.0181V15.6026C10.0181 15.5118 9.94375 15.4374 9.85291 15.4374H8.86194C8.7711 15.4374 8.69678 15.5118 8.69678 15.6026V18.8232H5.61652L6.54762 13.4555H17.4503L18.3814 18.8232H15.3032Z" fill="currentColor"/></svg>