<svg viewBox="0 0 15 14" fill="none" xmlns="http://www.w3.org/2000/svg"><path d="M2.27791 0.29289C1.88738 -0.09763 1.25422 -0.09763 0.863691 0.29289C0.473171 0.68342 0.473171 1.31658 0.863691 1.70711L6.1566 7L0.863721 12.2929C0.473201 12.6834 0.473201 13.3166 0.863721 13.7071C1.25425 14.0976 1.88741 14.0976 2.27794 13.7071L7.5708 8.4142L12.8637 13.7071C13.2542 14.0976 13.8874 14.0976 14.2779 13.7071C14.6684 13.3166 14.6684 12.6834 14.2779 12.2929L8.985 7L14.2779 1.70711C14.6685 1.31658 14.6685 0.68342 14.2779 0.29289C13.8874 -0.09763 13.2542 -0.09763 12.8637 0.29289L7.5708 5.5858L2.27791 0.29289Z" fill="currentColor"/></svg>