<svg viewBox="0 0 24 25" fill="none" xmlns="http://www.w3.org/2000/svg"><path d="M20.3671 7.48742L17.4559 4.57614C17.0759 4.21923 16.578 4.01445 16.0569 4.00074C15.5358 3.98702 15.0278 4.16534 14.6296 4.50176L5.06698 14.0644C4.72354 14.4107 4.50969 14.8647 4.46135 15.35L4.00447 19.7807C3.99015 19.9363 4.01035 20.0932 4.06361 20.2401C4.11687 20.387 4.20188 20.5204 4.31259 20.6307C4.41188 20.7292 4.52962 20.8071 4.65907 20.86C4.78853 20.9128 4.92714 20.9396 5.06698 20.9388H5.1626L9.59328 20.5351C10.0786 20.4867 10.5326 20.2729 10.8789 19.9294L20.4415 10.3668C20.8127 9.97472 21.0133 9.45148 20.9993 8.91175C20.9854 8.37203 20.758 7.85984 20.3671 7.48742V7.48742ZM9.40203 18.41L6.21449 18.7075L6.50137 15.52L12.5046 9.59119L15.3733 12.46L9.40203 18.41ZM16.7546 11.0362L13.9071 8.18868L15.979 6.06365L18.8796 8.96431L16.7546 11.0362Z" fill="currentColor"/></svg>