<svg viewBox="0 0 24 25" fill="none" xmlns="http://www.w3.org/2000/svg"><path d="M10.0444 15.8C9.86667 15.6222 9.78133 15.4074 9.78844 15.1556C9.79615 14.9037 9.88889 14.6889 10.0667 14.5111L11.6889 12.8889H4.88889C4.63704 12.8889 4.42607 12.8036 4.256 12.6329C4.08533 12.4628 4 12.2519 4 12C4 11.7481 4.08533 11.5369 4.256 11.3662C4.42607 11.1961 4.63704 11.1111 4.88889 11.1111H11.6889L10.0444 9.46667C9.86667 9.28889 9.77778 9.07793 9.77778 8.83378C9.77778 8.58904 9.86667 8.37778 10.0444 8.2C10.2222 8.02222 10.4335 7.93333 10.6782 7.93333C10.9224 7.93333 11.1333 8.02222 11.3111 8.2L14.4889 11.3778C14.5778 11.4667 14.6409 11.563 14.6782 11.6667C14.715 11.7704 14.7333 11.8815 14.7333 12C14.7333 12.1185 14.715 12.2296 14.6782 12.3333C14.6409 12.437 14.5778 12.5333 14.4889 12.6222L11.2889 15.8222C11.1259 15.9852 10.9224 16.0667 10.6782 16.0667C10.4335 16.0667 10.2222 15.9778 10.0444 15.8V15.8ZM5.77778 20C5.28889 20 4.87022 19.8261 4.52178 19.4782C4.17393 19.1298 4 18.7111 4 18.2222V15.5556C4 15.3037 4.08533 15.0924 4.256 14.9218C4.42607 14.7517 4.63704 14.6667 4.88889 14.6667C5.14074 14.6667 5.352 14.7517 5.52267 14.9218C5.69274 15.0924 5.77778 15.3037 5.77778 15.5556V18.2222H18.2222V5.77778H5.77778V8.44444C5.77778 8.6963 5.69274 8.90726 5.52267 9.07733C5.352 9.248 5.14074 9.33333 4.88889 9.33333C4.63704 9.33333 4.42607 9.248 4.256 9.07733C4.08533 8.90726 4 8.6963 4 8.44444V5.77778C4 5.28889 4.17393 4.87022 4.52178 4.52178C4.87022 4.17393 5.28889 4 5.77778 4H18.2222C18.7111 4 19.1298 4.17393 19.4782 4.52178C19.8261 4.87022 20 5.28889 20 5.77778V18.2222C20 18.7111 19.8261 19.1298 19.4782 19.4782C19.1298 19.8261 18.7111 20 18.2222 20H5.77778Z" fill="currentColor"/></svg>