<svg viewBox="0 0 24 24" fill="none" xmlns="http://www.w3.org/2000/svg"><path fill-rule="evenodd" clip-rule="evenodd" d="M19 11C19 14.866 15.866 18 12 18C8.13401 18 5 14.866 5 11C5 7.13401 8.13401 4 12 4C15.866 4 19 7.13401 19 11ZM17.2854 18.2854C15.8013 19.3639 13.9749 20 12 20C7.02944 20 3 15.9706 3 11C3 6.02944 7.02944 2 12 2C16.9706 2 21 6.02944 21 11C21 13.2745 20.1563 15.3519 18.7648 16.9363L21.6569 19.8284C22.0474 20.219 22.0474 20.8521 21.6569 21.2426C21.2663 21.6332 20.6332 21.6332 20.2426 21.2426L17.2854 18.2854Z" fill="currentColor"/></svg>